<svg preserveAspectRatio="none" width="100%" height="100%" overflow="visible" style="display: block;" viewBox="0 0 9.71146 15.8333" fill="none" xmlns="http://www.w3.org/2000/svg">
<path id="Vector" d="M9.71146 10.9535C9.71146 12.3069 9.24056 13.4585 8.29875 14.4083C7.35708 15.3583 6.21076 15.8333 4.85979 15.8333C3.50882 15.8333 2.36111 15.3583 1.41667 14.4083C0.472222 13.4585 0 12.3069 0 10.9535V3.46146C0 2.49993 0.333889 1.68264 1.00167 1.00958C1.66931 0.336528 2.48389 0 3.44542 0C4.40694 0 5.2216 0.336528 5.88938 1.00958C6.55715 1.68264 6.89104 2.49993 6.89104 3.46146V10.5529C6.89104 11.1169 6.69458 11.5985 6.30167 11.9975C5.90861 12.3965 5.42972 12.596 4.865 12.596C4.30014 12.596 3.81819 12.3979 3.41917 12.0017C3.02014 11.6054 2.82063 11.1225 2.82063 10.5529V3.86229C2.82063 3.68521 2.88049 3.53674 3.00021 3.41687C3.12007 3.29715 3.26861 3.23729 3.44583 3.23729C3.62292 3.23729 3.77132 3.29715 3.89104 3.41687C4.01063 3.53674 4.07042 3.68521 4.07042 3.86229V10.5529C4.07042 10.7762 4.14549 10.9643 4.29562 11.1171C4.44576 11.2699 4.6325 11.3462 4.85583 11.3462C5.07903 11.3462 5.2657 11.2699 5.41583 11.1171C5.56597 10.9643 5.64104 10.7762 5.64104 10.5529V3.45354C5.63243 2.83813 5.41819 2.31701 4.99833 1.89021C4.57847 1.4634 4.06111 1.25 3.44625 1.25C2.83125 1.25 2.31146 1.46472 1.88687 1.89417C1.46229 2.32375 1.25 2.84618 1.25 3.46146V10.9535C1.24139 11.961 1.58965 12.8178 2.29479 13.524C2.99993 14.2302 3.8559 14.5833 4.86271 14.5833C5.85521 14.5833 6.69889 14.2302 7.39375 13.524C8.08847 12.8178 8.44437 11.961 8.46146 10.9535V3.86229C8.46146 3.68521 8.52139 3.53674 8.64125 3.41687C8.76111 3.29715 8.90965 3.23729 9.08687 3.23729C9.26396 3.23729 9.41236 3.29715 9.53208 3.41687C9.65167 3.53674 9.71146 3.68521 9.71146 3.86229V10.9535Z" fill="var(--fill-0, #232323)"/>
</svg>
