<svg preserveAspectRatio="none" width="100%" height="100%" overflow="visible" style="display: block;" viewBox="0 0 12.6667 12.6667" fill="none" xmlns="http://www.w3.org/2000/svg">
<path id="Vector" d="M6.83333 6.13083V3.5C6.83333 3.35833 6.78539 3.23956 6.6895 3.14367C6.59361 3.04789 6.47483 3 6.33317 3C6.19139 3 6.07267 3.04789 5.977 3.14367C5.88122 3.23956 5.83333 3.35833 5.83333 3.5V6.28467C5.83333 6.36311 5.84789 6.43911 5.877 6.51267C5.906 6.58622 5.95172 6.65422 6.01417 6.71667L8.2975 9C8.38972 9.09233 8.50572 9.13956 8.6455 9.14167C8.78528 9.14378 8.90344 9.09656 9 9C9.09656 8.90344 9.14483 8.78633 9.14483 8.64867C9.14483 8.51111 9.09656 8.39406 9 8.2975L6.83333 6.13083ZM6.3345 12.6667C5.4585 12.6667 4.63511 12.5004 3.86433 12.168C3.09356 11.8356 2.42311 11.3844 1.853 10.8145C1.28289 10.2446 0.8315 9.57444 0.498833 8.804C0.166278 8.03356 0 7.21039 0 6.3345C0 5.4585 0.166222 4.63511 0.498667 3.86433C0.831111 3.09356 1.28228 2.42311 1.85217 1.853C2.42206 1.28289 3.09222 0.8315 3.86267 0.498833C4.63311 0.166278 5.45628 0 6.33217 0C7.20817 0 8.03156 0.166222 8.80233 0.498666C9.57311 0.831111 10.2436 1.28228 10.8137 1.85217C11.3838 2.42206 11.8352 3.09222 12.1678 3.86267C12.5004 4.63311 12.6667 5.45628 12.6667 6.33217C12.6667 7.20817 12.5004 8.03156 12.168 8.80233C11.8356 9.57311 11.3844 10.2436 10.8145 10.8137C10.2446 11.3838 9.57444 11.8352 8.804 12.1678C8.03356 12.5004 7.21039 12.6667 6.3345 12.6667ZM6.33333 11.6667C7.81111 11.6667 9.06944 11.1472 10.1083 10.1083C11.1472 9.06944 11.6667 7.81111 11.6667 6.33333C11.6667 4.85556 11.1472 3.59722 10.1083 2.55833C9.06944 1.51944 7.81111 1 6.33333 1C4.85556 1 3.59722 1.51944 2.55833 2.55833C1.51944 3.59722 1 4.85556 1 6.33333C1 7.81111 1.51944 9.06944 2.55833 10.1083C3.59722 11.1472 4.85556 11.6667 6.33333 11.6667Z" fill="var(--fill-0, #232323)"/>
</svg>
