<svg preserveAspectRatio="none" width="100%" height="100%" overflow="visible" style="display: block;" viewBox="0 0 12.4607 8.86945" fill="none" xmlns="http://www.w3.org/2000/svg">
<path id="Vector" d="M4.18982 7.38883L11.3886 0.190079C11.5125 0.0660513 11.6575 0.00271806 11.8236 7.91668e-05C11.9897 -0.00255972 12.1374 0.0607735 12.2667 0.190079C12.396 0.319385 12.4607 0.467857 12.4607 0.635496C12.4607 0.803274 12.396 0.951814 12.2667 1.08112L4.71712 8.64362C4.56642 8.79418 4.39066 8.86945 4.18982 8.86945C3.98899 8.86945 3.81323 8.79418 3.66253 8.64362L0.183367 5.16445C0.0594777 5.04043 -0.00163348 4.8932 3.31858e-05 4.72279C0.00156096 4.55251 0.0669776 4.40272 0.196283 4.27341C0.325589 4.14411 0.474061 4.07945 0.6417 4.07945C0.809478 4.07945 0.958019 4.14411 1.08732 4.27341L4.18982 7.38883Z" fill="var(--fill-0, white)"/>
</svg>
