<svg preserveAspectRatio="none" width="100%" height="100%" overflow="visible" style="display: block;" viewBox="0 0 13.0661 12.2013" fill="none" xmlns="http://www.w3.org/2000/svg">
<path id="Vector" d="M7.03467 6.33217V3.70133C7.03467 3.55944 6.98678 3.44067 6.891 3.345C6.79533 3.24922 6.67656 3.20133 6.53467 3.20133C6.39278 3.20133 6.274 3.24922 6.17833 3.345C6.08256 3.44067 6.03467 3.55944 6.03467 3.70133V6.486C6.03467 6.56633 6.04922 6.64283 6.07833 6.7155C6.10733 6.78806 6.15306 6.85556 6.2155 6.918L8.1655 8.868C8.25772 8.96033 8.37372 9.00756 8.5135 9.00967C8.65328 9.01178 8.77144 8.96456 8.868 8.868C8.96456 8.77144 9.01283 8.65433 9.01283 8.51667C9.01283 8.37911 8.96456 8.26206 8.868 8.1655L7.03467 6.33217ZM4.3245 11.7552C3.63728 11.4577 3.03811 11.0534 2.527 10.5423C2.01589 10.0312 1.61161 9.43206 1.31417 8.74483C1.01672 8.05772 0.868 7.321 0.868 6.53467C0.868 5.74833 1.01672 5.01161 1.31417 4.3245C1.61161 3.63728 2.01589 3.03811 2.527 2.527C3.03811 2.01589 3.63728 1.61161 4.3245 1.31417C5.01161 1.01672 5.74833 0.868 6.53467 0.868C7.321 0.868 8.05772 1.01672 8.74483 1.31417C9.43206 1.61161 10.0312 2.01589 10.5423 2.527C11.0534 3.03811 11.4577 3.63728 11.7552 4.3245C12.0526 5.01161 12.2013 5.74833 12.2013 6.53467C12.2013 7.321 12.0526 8.05772 11.7552 8.74483C11.4577 9.43206 11.0534 10.0312 10.5423 10.5423C10.0312 11.0534 9.43206 11.4577 8.74483 11.7552C8.05772 12.0526 7.321 12.2013 6.53467 12.2013C5.74833 12.2013 5.01161 12.0526 4.3245 11.7552ZM0.145 2.72183C0.0483334 2.62528 0 2.50817 0 2.3705C0 2.23295 0.0483334 2.11589 0.145 2.01933L2.01933 0.145C2.11167 0.0526669 2.22767 0.00544465 2.36733 0.00333354C2.50711 0.00111131 2.62528 0.0483335 2.72183 0.145C2.81839 0.241556 2.86667 0.358611 2.86667 0.496167C2.86667 0.633834 2.81839 0.750945 2.72183 0.847501L0.8475 2.72183C0.755167 2.81417 0.639167 2.86139 0.4995 2.8635C0.359722 2.86561 0.241556 2.81839 0.145 2.72183ZM12.9243 2.72183C12.8278 2.81839 12.7107 2.86667 12.5732 2.86667C12.4355 2.86667 12.3184 2.81839 12.2218 2.72183L10.3475 0.847501C10.2552 0.755167 10.2079 0.639167 10.2058 0.4995C10.2037 0.359723 10.2509 0.241556 10.3475 0.145C10.4441 0.0483335 10.5612 0 10.6988 0C10.8364 0 10.9534 0.0483335 11.05 0.145L12.9243 2.01933C13.0167 2.11167 13.0639 2.22767 13.066 2.36733C13.0682 2.50711 13.021 2.62528 12.9243 2.72183ZM6.53467 11.2013C7.83044 11.2013 8.93217 10.7475 9.83983 9.83983C10.7475 8.93217 11.2013 7.83044 11.2013 6.53467C11.2013 5.23889 10.7475 4.13717 9.83983 3.2295C8.93217 2.32183 7.83044 1.868 6.53467 1.868C5.23889 1.868 4.13717 2.32183 3.2295 3.2295C2.32183 4.13717 1.868 5.23889 1.868 6.53467C1.868 7.83044 2.32183 8.93217 3.2295 9.83983C4.13717 10.7475 5.23889 11.2013 6.53467 11.2013Z" fill="var(--fill-0, white)"/>
</svg>
