<svg preserveAspectRatio="none" width="100%" height="100%" overflow="visible" style="display: block;" viewBox="0 0 14.1667 9.39083" fill="none" xmlns="http://www.w3.org/2000/svg">
<path id="Vector" d="M0.625 9.39083C0.447917 9.39083 0.299514 9.3309 0.179792 9.21104C0.0599307 9.09132 0 8.94285 0 8.76562C0 8.58854 0.0599307 8.44014 0.179792 8.32042C0.299514 8.20083 0.447917 8.14104 0.625 8.14104H13.5417C13.7188 8.14104 13.8672 8.2009 13.9869 8.32062C14.1067 8.44049 14.1667 8.58903 14.1667 8.76625C14.1667 8.94333 14.1067 9.09174 13.9869 9.21146C13.8672 9.33104 13.7188 9.39083 13.5417 9.39083H0.625ZM0.625 5.32042C0.447917 5.32042 0.299514 5.26049 0.179792 5.14062C0.0599307 5.02076 0 4.87229 0 4.69521C0 4.51799 0.0599307 4.36958 0.179792 4.25C0.299514 4.13028 0.447917 4.07042 0.625 4.07042H13.5417C13.7188 4.07042 13.8672 4.13035 13.9869 4.25021C14.1067 4.37007 14.1667 4.51854 14.1667 4.69563C14.1667 4.87285 14.1067 5.02125 13.9869 5.14083C13.8672 5.26056 13.7188 5.32042 13.5417 5.32042H0.625ZM0.625 1.24979C0.447917 1.24979 0.299514 1.18993 0.179792 1.07021C0.0599307 0.950347 0 0.801805 0 0.624583C0 0.4475 0.0599307 0.299097 0.179792 0.179375C0.299514 0.0597914 0.447917 0 0.625 0H13.5417C13.7188 0 13.8672 0.0599306 13.9869 0.179792C14.1067 0.299514 14.1667 0.447986 14.1667 0.625208C14.1667 0.802292 14.1067 0.950694 13.9869 1.07042C13.8672 1.19 13.7188 1.24979 13.5417 1.24979H0.625Z" fill="var(--fill-0, #232323)"/>
</svg>
