<svg preserveAspectRatio="none" width="100%" height="100%" overflow="visible" style="display: block;" viewBox="0 0 20.8333 20.4954" fill="none" xmlns="http://www.w3.org/2000/svg">
<path id="Vector (Stroke)" d="M0 17.5752V14.4349C2.55367e-05 13.9788 0.369747 13.609 0.825817 13.609C1.28189 13.609 1.65161 13.9788 1.65163 14.4349V17.5752C1.65163 17.9067 1.78578 18.2282 2.02906 18.4672C2.27277 18.7065 2.60645 18.8438 2.9573 18.8438H6.15411C6.61017 18.8438 6.97993 19.2135 6.97993 19.6696C6.97973 20.1255 6.61005 20.4954 6.15411 20.4954H2.9573C2.17765 20.4954 1.42663 20.1913 0.870979 19.6454C0.314849 19.0991 0 18.3544 0 17.5752ZM19.1817 17.5752V14.4349C19.1817 13.9788 19.5515 13.6091 20.0075 13.609C20.4636 13.609 20.8333 13.9788 20.8333 14.4349V17.5752C20.8333 18.3544 20.5185 19.099 19.9624 19.6454C19.4067 20.1913 18.6556 20.4954 17.876 20.4954H14.6792C14.2233 20.4954 13.8536 20.1255 13.8534 19.6696C13.8534 19.2135 14.2232 18.8438 14.6792 18.8438H17.876C18.2267 18.8438 18.5605 18.7065 18.8043 18.4672C19.0476 18.2282 19.1817 17.9067 19.1817 17.5752ZM0 6.05976V2.91939C3.62057e-05 2.14042 0.314979 1.39628 0.870979 0.850011C1.42663 0.304144 2.17767 0 2.9573 0H6.15411C6.61017 3.74531e-05 6.97993 0.369754 6.97993 0.825817C6.97993 1.28188 6.61017 1.6516 6.15411 1.65163H2.9573C2.60635 1.65163 2.27278 1.78886 2.02906 2.02825C1.78587 2.26712 1.65167 2.58791 1.65163 2.91939V6.05976C1.65163 6.51584 1.2819 6.88557 0.825817 6.88557C0.369731 6.88557 0 6.51584 0 6.05976ZM19.1817 6.05976V2.91939C19.1817 2.58791 19.0475 2.26712 18.8043 2.02825C18.5605 1.78886 18.2268 1.65163 17.876 1.65163H14.6792C14.2232 1.6516 13.8534 1.28188 13.8534 0.825817C13.8534 0.369754 14.2232 3.7453e-05 14.6792 0H17.876C18.6556 0 19.4067 0.304184 19.9624 0.850011C20.5184 1.39629 20.8333 2.14041 20.8333 2.91939V6.05976C20.8333 6.51584 20.4636 6.88557 20.0075 6.88557C19.5515 6.88552 19.1817 6.51581 19.1817 6.05976Z" fill="var(--fill-0, #6240FF)"/>
</svg>
