<svg preserveAspectRatio="none" width="100%" height="100%" overflow="visible" style="display: block;" viewBox="0 0 83.9537 21.0664" fill="none" xmlns="http://www.w3.org/2000/svg">
<g id="Group 1">
<path id="Vector" fill-rule="evenodd" clip-rule="evenodd" d="M48.2823 3.80117C49.3763 3.80117 50.3469 4.06834 51.1943 4.60267C52.0417 5.13687 52.7119 5.8696 53.2049 6.80085C53.6979 7.73197 53.9445 8.80064 53.9445 10.0066C53.9445 11.1972 53.6979 12.2659 53.2049 13.2123C52.7272 14.1435 52.0648 14.8839 51.2174 15.4334C50.37 15.9677 49.4146 16.2349 48.3516 16.2349C47.6428 16.2349 46.9573 16.0975 46.2947 15.8226C45.6322 15.5326 45.0698 15.1662 44.6076 14.7236C44.5159 14.6357 44.4312 14.5471 44.3534 14.4581V20.1009C44.3534 20.634 43.9172 21.0663 43.379 21.0664H42.9242C42.3861 21.0664 41.9499 20.6342 41.9499 20.1009V4.97274C41.9499 4.43946 42.3861 4.00723 42.9242 4.00723H43.379C43.9172 4.00723 44.3534 4.43946 44.3534 4.97274V5.72014C44.468 5.55812 44.6066 5.39928 44.7694 5.24374C45.2008 4.81627 45.7247 4.47279 46.3409 4.21329C46.9726 3.93859 47.6198 3.80117 48.2823 3.80117ZM47.9587 5.97647C47.2346 5.97647 46.5952 6.15211 46.0405 6.50313C45.4858 6.83894 45.0468 7.31217 44.7232 7.92282C44.3997 8.53347 44.2379 9.22797 44.2379 10.0066C44.2379 10.7851 44.3997 11.4797 44.7232 12.0902C45.0468 12.7009 45.4858 13.1818 46.0405 13.5329C46.5952 13.884 47.2346 14.0595 47.9587 14.0595C48.6674 14.0595 49.2991 13.884 49.8538 13.5329C50.4085 13.1818 50.8476 12.7009 51.1711 12.0902C51.4948 11.4797 51.6565 10.7851 51.6565 10.0066C51.6565 9.22797 51.4948 8.54101 51.1711 7.9457C50.863 7.33505 50.4315 6.85428 49.877 6.50313C49.3223 6.15198 48.6829 5.97647 47.9587 5.97647Z" fill="var(--fill-0, #1E1E1E)"/>
<path id="Vector_2" d="M56.7852 4.00726C57.3234 4.00726 57.7597 4.43949 57.7597 4.97264V10.7851C57.7597 11.4873 57.8676 12.0979 58.0833 12.6169C58.3144 13.1207 58.638 13.51 59.0539 13.7848C59.4852 14.0595 60.0014 14.1969 60.6023 14.1969C61.0492 14.1969 61.4575 14.1281 61.8272 13.9909C62.1969 13.8381 62.5128 13.632 62.7748 13.3725C63.0521 13.113 63.2678 12.8001 63.4219 12.4337C63.5759 12.0674 63.653 11.6705 63.653 11.243V4.97264C63.653 4.43949 64.0893 4.00726 64.6274 4.00726H65.0655C65.6011 4.00726 66.0362 4.43553 66.0399 4.96616L66.1192 16.6789C66.1196 16.7424 66.1136 16.8047 66.1021 16.8652C65.9445 18.2618 64.7544 19.6166 63.7597 20.1694C62.7219 20.7207 61.5359 20.9965 60.2016 20.9965C59.5921 20.9965 58.9744 20.9154 58.3485 20.7532C57.706 20.5748 57.1049 20.3397 56.5448 20.0478C56.2459 19.8964 55.9714 19.732 55.7212 19.5546C55.3324 19.2788 55.2917 18.7431 55.5704 18.3581L55.7494 18.1107C56.0835 17.6489 56.7407 17.5807 57.2188 17.8944C57.55 18.1118 57.8689 18.2784 58.1755 18.3937C58.7192 18.6045 59.3348 18.8204 59.9833 18.8204C60.9495 18.8204 61.7759 18.7316 62.4313 18.3937C63.166 18.0149 63.7043 17.2475 63.7591 16.2265V13.9319C63.5893 14.2284 63.3768 14.5076 63.1214 14.7693C62.69 15.2272 62.1739 15.5937 61.573 15.8684C60.9722 16.1279 60.325 16.2577 59.6317 16.2577C58.7688 16.2577 58.0139 16.0593 57.3669 15.6624C56.7352 15.2655 56.2421 14.7082 55.8878 13.9909C55.5487 13.2733 55.3792 12.4184 55.3792 11.4262V4.97264C55.3792 4.43949 55.8156 4.00726 56.3537 4.00726H56.7852Z" fill="var(--fill-0, #1E1E1E)"/>
<path id="Vector_3" fill-rule="evenodd" clip-rule="evenodd" d="M21.3151 3.7325C22.1008 3.7325 22.8327 3.88513 23.5106 4.19039C24.1885 4.48044 24.7739 4.88503 25.2669 5.40402C25.7754 5.92301 26.1606 6.54133 26.4225 7.25885C26.6998 7.96102 26.8308 8.73197 26.8153 9.57157L26.8139 9.63545C26.8019 10.16 26.3693 10.579 25.8398 10.579H17.596C17.5671 10.579 17.5382 10.5777 17.5098 10.575C17.5749 11.1721 17.7417 11.7076 18.0101 12.1819C18.3645 12.7925 18.8652 13.2657 19.5123 13.6016C20.1595 13.9374 20.9067 14.1053 21.7541 14.1053C22.355 14.1053 22.9097 14.006 23.4181 13.8076C23.6859 13.7062 23.9638 13.5628 24.2517 13.3776C24.7347 13.067 25.3947 13.1343 25.7288 13.5989L25.8287 13.7378C26.1047 14.1217 26.0645 14.6549 25.6761 14.9271C25.4523 15.0841 25.2081 15.2298 24.9434 15.3647C24.4195 15.6394 23.8571 15.8608 23.2562 16.0288C22.6708 16.1814 22.093 16.2578 21.5229 16.2578C20.275 16.2578 19.1657 15.9983 18.195 15.4793C17.2398 14.9449 16.4849 14.2197 15.9302 13.3038C15.3909 12.3879 15.1213 11.3346 15.1213 10.144C15.1213 9.19753 15.2753 8.33506 15.5835 7.55644C15.8916 6.77795 16.3153 6.10619 16.8546 5.54144C17.4093 4.96134 18.0641 4.51866 18.819 4.21327C19.5894 3.8928 20.4213 3.7325 21.3151 3.7325ZM21.3151 5.9078C20.483 5.9078 19.782 6.0681 19.2119 6.38857C18.6419 6.69396 18.2104 7.15185 17.9177 7.7625C17.7797 8.04329 17.6742 8.35622 17.6013 8.70142H24.3888V8.54099C24.3425 8.03734 24.173 7.58699 23.8803 7.19007C23.5876 6.79316 23.2177 6.48023 22.771 6.25128C22.3242 6.02234 21.8388 5.9078 21.3151 5.9078Z" fill="var(--fill-0, #1E1E1E)"/>
<path id="Vector_4" d="M30.1235 4.00726C30.6616 4.00726 31.0978 4.43949 31.0978 4.97264V10.7851C31.0978 11.4873 31.2057 12.0979 31.4215 12.6169C31.6525 13.1207 31.976 13.51 32.3921 13.7848C32.8234 14.0595 33.3396 14.1969 33.9405 14.1969C34.3872 14.1969 34.7956 14.1281 35.1654 13.9909C35.5351 13.8381 35.851 13.632 36.1129 13.3725C36.3902 13.113 36.6059 12.8001 36.7599 12.4337C36.9141 12.0674 36.9911 11.6705 36.9911 11.243V4.97264C36.9911 4.43949 37.4273 4.00726 37.9655 4.00726H38.3971C38.9352 4.00726 39.3716 4.43949 39.3716 4.97264V15.0634C39.3716 15.5965 38.9352 16.0287 38.3971 16.0287H37.9655C37.4273 16.0287 36.9911 15.5965 36.9911 15.0634V14.1063C36.8414 14.3386 36.6642 14.5596 36.4596 14.7693C36.0282 15.2272 35.512 15.5937 34.9111 15.8684C34.3102 16.1279 33.6632 16.2577 32.9698 16.2577C32.107 16.2577 31.3521 16.0593 30.7049 15.6624C30.0732 15.2655 29.5802 14.7082 29.2258 13.9909C28.887 13.2733 28.7174 12.4184 28.7174 11.4262V4.97264C28.7174 4.43949 29.1537 4.00726 29.6918 4.00726H30.1235Z" fill="var(--fill-0, #1E1E1E)"/>
<path id="Vector_5" d="M72.8127 3.79517C73.2398 3.79517 73.6171 4.07067 73.7435 4.47472L75.8855 11.3217L78.0276 4.47472C78.154 4.07067 78.5313 3.79517 78.9582 3.79517H80.7308C80.8598 3.79517 80.9856 3.83511 81.0906 3.90957C81.2112 3.99514 81.2967 4.12079 81.3316 4.26377L83.926 14.9042C84.0741 15.5116 83.6096 16.0964 82.9788 16.0964H82.316C81.8494 16.0964 81.448 15.7684 81.3594 15.3143L79.8881 7.78165C79.7942 7.442 79.7523 7.25102 79.6606 6.98213C79.5848 7.20406 79.5672 7.38248 79.5244 7.51726C79.5016 7.58868 79.4694 7.65719 79.4479 7.72901L77.1522 15.4052C77.0295 15.8151 76.6493 16.0964 76.2178 16.0964H75.5531C75.1216 16.0964 74.7415 15.8151 74.6189 15.4052L72.3231 7.72901C72.3017 7.65719 72.2693 7.58868 72.2466 7.51726C72.2038 7.38248 72.1863 7.20406 72.1105 6.98213C72.0188 7.25102 71.9769 7.442 71.8828 7.78165L70.4116 15.3143C70.3229 15.7684 69.9217 16.0964 69.4549 16.0964H68.7922C68.1615 16.0964 67.697 15.5116 67.8451 14.9042L70.4394 4.26377C70.4743 4.12079 70.5599 3.99514 70.6805 3.90957C70.7854 3.83511 70.9111 3.79517 71.0401 3.79517H72.8127Z" fill="var(--fill-0, #1E1E1E)"/>
<path id="Vector_6" d="M1.52152 0C2.05966 0 2.49602 0.43223 2.49602 0.965506V6.84663H10.5617V0.965506C10.5617 0.43223 10.9979 0 11.536 0H12.0832C12.6213 0 13.0577 0.43223 13.0577 0.965506V15.0633C13.0577 15.5965 12.6213 16.0287 12.0832 16.0287H11.536C10.9979 16.0287 10.5617 15.5965 10.5617 15.0633V9.22799H2.49602V15.0633C2.49602 15.5965 2.05966 16.0287 1.52152 16.0287H0.974358C0.436218 16.0287 0 15.5965 0 15.0633V0.965506C0 0.43223 0.436218 0 0.974358 0H1.52152Z" fill="var(--fill-0, #1E1E1E)"/>
<path id="Vector_7" d="M34.5606 1.61875C34.9297 1.61889 35.2287 1.91515 35.2287 2.28072V3.32995C35.2287 3.69552 34.9297 3.99178 34.5606 3.99178H33.5017C33.1327 3.99178 32.8337 3.69552 32.8337 3.32995V2.28072C32.8337 1.91515 33.1327 1.61889 33.5017 1.61875H34.5606Z" fill="var(--fill-0, #1E1E1E)"/>
</g>
</svg>
